<svg width="177" height="69" viewBox="0 0 177 69" fill="none" xmlns="http://www.w3.org/2000/svg">
<path d="M5.29688 8.875H7.82812L13 33H9.78125L8.875 28.2969H4.09375L3.17188 33H0.046875L5.29688 8.875ZM8.40625 25.7812L7.6875 21.9375C7.20833 19.3229 6.81771 16.5312 6.51562 13.5625C6.36979 15.0104 6.18229 16.4792 5.95312 17.9688C5.72396 19.4479 5.45312 21.0208 5.14062 22.6875L4.54688 25.7812H8.40625ZM21 17.1562V19.9531C20.2708 19.4115 19.5052 19.1406 18.7031 19.1406C18.4323 19.1406 18.1823 19.1875 17.9531 19.2812C17.724 19.375 17.5208 19.5052 17.3438 19.6719C17.1771 19.8281 17.0417 20.0208 16.9375 20.25C16.8438 20.4688 16.7969 20.7031 16.7969 20.9531C16.7969 21.724 17.4948 22.6406 18.8906 23.7031C19.4531 24.1406 19.9219 24.5469 20.2969 24.9219C20.6719 25.2969 20.9583 25.651 21.1562 25.9844C21.5625 26.6406 21.7656 27.4688 21.7656 28.4688C21.7656 29.9167 21.3438 31.0781 20.5 31.9531C19.6667 32.8177 18.5469 33.25 17.1406 33.25C16.276 33.25 15.401 32.9948 14.5156 32.4844V29.5938C15.3802 30.2396 16.1979 30.5625 16.9688 30.5625C18.3333 30.5625 19.0156 29.8906 19.0156 28.5469C19.0156 28.0469 18.8906 27.6146 18.6406 27.25C18.526 27.0729 18.3438 26.8698 18.0938 26.6406C17.8438 26.401 17.5365 26.1354 17.1719 25.8438C15.9115 24.8646 15.0573 24.0417 14.6094 23.375C14.1719 22.6875 13.9531 21.8594 13.9531 20.8906C13.9531 19.5885 14.3542 18.5208 15.1562 17.6875C15.9688 16.8646 17.026 16.4531 18.3281 16.4531C19.2448 16.4531 20.1354 16.6875 21 17.1562ZM24.1562 6.45312H27.1406V24.0312L30.9375 16.8281H34.3125L30.1875 24.0312L34.8594 33H31.3594L27.1406 24.4062V33H24.1562V6.45312ZM5.29688 37.875H7.82812L13 62H9.78125L8.875 57.2969H4.09375L3.17188 62H0.046875L5.29688 37.875ZM8.40625 54.7812L7.6875 50.9375C7.20833 48.3229 6.81771 45.5312 6.51562 42.5625C6.36979 44.0104 6.18229 45.4792 5.95312 46.9688C5.72396 48.4479 5.45312 50.0208 5.14062 51.6875L4.54688 54.7812H8.40625ZM24.3906 54.0469C24.3906 59.5156 22.6979 62.25 19.3125 62.25C15.9271 62.25 14.2344 59.474 14.2344 53.9219C14.2344 48.349 15.9219 45.5625 19.2969 45.5625C20.1719 45.5625 20.9271 45.7292 21.5625 46.0625C22.2083 46.3958 22.7396 46.9115 23.1562 47.6094C23.5729 48.3073 23.8802 49.1875 24.0781 50.25C24.2865 51.3125 24.3906 52.5781 24.3906 54.0469ZM21.2969 53.9688C21.2969 51.8438 21.1562 50.3646 20.875 49.5312C20.5938 48.6875 20.0938 48.2656 19.375 48.2656C18.6667 48.2656 18.1615 48.6823 17.8594 49.5156C17.5781 50.349 17.4375 51.8021 17.4375 53.875C17.4375 55.9479 17.5781 57.3958 17.8594 58.2188C18.1615 59.0521 18.6667 59.4688 19.375 59.4688C20.0833 59.4688 20.5781 59.0573 20.8594 58.2344C21.151 57.4635 21.2969 56.0417 21.2969 53.9688ZM27.5156 41.2969H30.5V45.8281H32.125V48.2031H30.5V62H27.5156V48.2031H25.875V45.8281H27.5156V41.2969ZM43.7656 54.0469C43.7656 59.5156 42.0729 62.25 38.6875 62.25C35.3021 62.25 33.6094 59.474 33.6094 53.9219C33.6094 48.349 35.2969 45.5625 38.6719 45.5625C39.5469 45.5625 40.3021 45.7292 40.9375 46.0625C41.5833 46.3958 42.1146 46.9115 42.5312 47.6094C42.9479 48.3073 43.2552 49.1875 43.4531 50.25C43.6615 51.3125 43.7656 52.5781 43.7656 54.0469ZM40.6719 53.9688C40.6719 51.8438 40.5312 50.3646 40.25 49.5312C39.9688 48.6875 39.4688 48.2656 38.75 48.2656C38.0417 48.2656 37.5365 48.6823 37.2344 49.5156C36.9531 50.349 36.8125 51.8021 36.8125 53.875C36.8125 55.9479 36.9531 57.3958 37.2344 58.2188C37.5365 59.0521 38.0417 59.4688 38.75 59.4688C39.4583 59.4688 39.9531 59.0573 40.2344 58.2344C40.526 57.4635 40.6719 56.0417 40.6719 53.9688ZM46.5625 35.4531H49.5469V53.0312L53.3438 45.8281H56.7188L52.5938 53.0312L57.2656 62H53.7656L49.5469 53.4062V62H46.5625V35.4531ZM59.0938 45.8281H62.0938V62H59.0938V45.8281ZM60.5 38.9531C61.0417 38.9531 61.5104 39.151 61.9062 39.5469C62.3021 39.9427 62.5 40.4167 62.5 40.9688C62.5 41.5312 62.3021 42.0104 61.9062 42.4062C61.5104 42.8021 61.0312 43 60.4688 43C59.9062 43 59.4271 42.8021 59.0312 42.4062C58.6458 42.0208 58.4531 41.5365 58.4531 40.9531C58.4531 40.4115 58.651 39.9427 59.0469 39.5469C59.474 39.151 59.9583 38.9531 60.5 38.9531ZM65.8281 41.2969H68.8125V45.8281H70.4375V48.2031H68.8125V62H65.8281V48.2031H64.1875V45.8281H65.8281V41.2969ZM78.8438 46.1562V48.9531C78.1146 48.4115 77.349 48.1406 76.5469 48.1406C76.276 48.1406 76.026 48.1875 75.7969 48.2812C75.5677 48.375 75.3646 48.5052 75.1875 48.6719C75.0208 48.8281 74.8854 49.0208 74.7812 49.25C74.6875 49.4688 74.6406 49.7031 74.6406 49.9531C74.6406 50.724 75.3385 51.6406 76.7344 52.7031C77.2969 53.1406 77.7656 53.5469 78.1406 53.9219C78.5156 54.2969 78.8021 54.651 79 54.9844C79.4062 55.6406 79.6094 56.4688 79.6094 57.4688C79.6094 58.9167 79.1875 60.0781 78.3438 60.9531C77.5104 61.8177 76.3906 62.25 74.9844 62.25C74.1198 62.25 73.2448 61.9948 72.3594 61.4844V58.5938C73.224 59.2396 74.0417 59.5625 74.8125 59.5625C76.1771 59.5625 76.8594 58.8906 76.8594 57.5469C76.8594 57.0469 76.7344 56.6146 76.4844 56.25C76.3698 56.0729 76.1875 55.8698 75.9375 55.6406C75.6875 55.401 75.3802 55.1354 75.0156 54.8438C73.7552 53.8646 72.901 53.0417 72.4531 52.375C72.0156 51.6875 71.7969 50.8594 71.7969 49.8906C71.7969 48.5885 72.1979 47.5208 73 46.6875C73.8125 45.8646 74.8698 45.4531 76.1719 45.4531C77.0885 45.4531 77.9792 45.6875 78.8438 46.1562ZM82 45.8281H85V62H82V45.8281ZM83.4062 38.9531C83.9479 38.9531 84.4167 39.151 84.8125 39.5469C85.2083 39.9427 85.4062 40.4167 85.4062 40.9688C85.4062 41.5312 85.2083 42.0104 84.8125 42.4062C84.4167 42.8021 83.9375 43 83.375 43C82.8125 43 82.3333 42.8021 81.9375 42.4062C81.5521 42.0208 81.3594 41.5365 81.3594 40.9531C81.3594 40.4115 81.5573 39.9427 81.9531 39.5469C82.3802 39.151 82.8646 38.9531 83.4062 38.9531ZM88.375 45.8281H91.3594V47.8438C91.8698 46.9896 92.375 46.3906 92.875 46.0469C93.375 45.7031 94.0365 45.5052 94.8594 45.4531V48.5781C94.651 48.5469 94.474 48.5312 94.3281 48.5312C93.2552 48.5312 92.4896 48.8073 92.0312 49.3594C91.5833 49.901 91.3594 50.849 91.3594 52.2031V62H88.375V45.8281ZM97 45.8281H99.9844V56.6406C100.005 57.6406 100.151 58.3542 100.422 58.7812C100.703 59.2083 101.167 59.4219 101.812 59.4219C102.49 59.4219 102.964 59.2344 103.234 58.8594C103.505 58.4635 103.641 57.776 103.641 56.7969V55.5V45.8281H106.625V55.5C106.625 57.7604 106.458 59.2708 106.125 60.0312C105.427 61.5104 103.979 62.25 101.781 62.25C100.052 62.25 98.8229 61.8125 98.0938 60.9375C97.3646 60.0521 97 58.5781 97 56.5156V45.8281ZM108.438 45.8281H111.812L114.188 57.1094L116.969 45.8281H120L113.391 68.625H110.25L112.734 60.7031L108.438 45.8281ZM130.953 45.8281V62H127.969V59.9219C127.542 60.8073 127.115 61.4167 126.688 61.75C126.26 62.0833 125.698 62.25 125 62.25C123.656 62.25 122.672 61.5625 122.047 60.1875C121.422 58.8125 121.109 56.6562 121.109 53.7188C121.109 50.9167 121.422 48.8594 122.047 47.5469C122.672 46.224 123.656 45.5625 125 45.5625C126.229 45.5625 127.219 46.2604 127.969 47.6562V45.8281H130.953ZM124.203 53.8438C124.203 55.9688 124.344 57.4531 124.625 58.2969C124.917 59.1406 125.427 59.5625 126.156 59.5625C126.823 59.5625 127.307 59.125 127.609 58.25C127.911 57.3125 128.062 55.8698 128.062 53.9219C128.062 51.9635 127.911 50.5156 127.609 49.5781C127.307 48.7031 126.823 48.2656 126.156 48.2656C125.448 48.2656 124.943 48.6823 124.641 49.5156C124.349 50.2865 124.203 51.7292 124.203 53.8438Z" fill="white"/>
<path d="M145.482 63H138V39H151.476L145.482 63ZM177 63H148.575L154.568 39H177V63Z" fill="white"/>
</svg>
